<svg xmlns="http://www.w3.org/2000/svg" xmlns:xlink="http://www.w3.org/1999/xlink" viewBox="0 0 238.73 204.46"><defs><style>.cls-1{fill:url(#linear-gradient);}.cls-2{fill:url(#linear-gradient-2);}.cls-3{fill:url(#linear-gradient-3);}.cls-4{fill:url(#linear-gradient-4);}.cls-5{font-size:48px;font-family:Montserrat-Light, Montserrat;font-weight:300;}.cls-6{letter-spacing:0em;}.cls-7{letter-spacing:-0.03em;}</style><linearGradient id="linear-gradient" x1="67.15" y1="22.8" x2="172.16" y2="127.81" gradientUnits="userSpaceOnUse"><stop offset="0" stop-color="#07f"/><stop offset="1" stop-color="#00ffa4"/></linearGradient><linearGradient id="linear-gradient-2" x1="54.48" y1="35.47" x2="159.49" y2="140.48" gradientTransform="translate(152.96 -29.84) rotate(80.76)" xlink:href="#linear-gradient"/><linearGradient id="linear-gradient-3" x1="67.15" y1="22.8" x2="172.16" y2="127.81" gradientTransform="translate(164.82 -58.44) rotate(76.66)" xlink:href="#linear-gradient"/><linearGradient id="linear-gradient-4" x1="79.82" y1="10.13" x2="184.83" y2="115.14" gradientTransform="translate(95.42 -80.35) rotate(45)" xlink:href="#linear-gradient"/></defs><g id="Camada_2" data-name="Camada 2"><g id="Layer_1" data-name="Layer 1"><path class="cls-1" d="M173.53,23.13a75,75,0,1,0-2.28,106.05A75,75,0,0,0,173.53,23.13Zm-7.74,79.12c-6,10.55-.36,17.71,2.5,21.72,0,0,0,0,0,0l-.22-.23.17.27,0,0c-4-2.89-10.88-8.31-21.94-2.43h0a53.8,53.8,0,1,1,19.48-19.35Z"/><circle class="cls-2" cx="94.02" cy="75.01" r="9.21" transform="translate(4.88 155.77) rotate(-80.76)"/><circle class="cls-3" cx="119.36" cy="75.01" r="9.21" transform="translate(18.84 173.85) rotate(-76.66)"/><circle class="cls-4" cx="144.7" cy="75.01" r="9.21" transform="translate(-10.66 124.29) rotate(-45)"/><text class="cls-5" transform="translate(0 191.93)"><tspan class="cls-6">R</tspan><tspan x="34.32" y="0">aise </tspan><tspan class="cls-7" x="138.77" y="0">T</tspan><tspan x="164.4" y="0">alk</tspan></text></g></g></svg>