<svg xmlns="http://www.w3.org/2000/svg" xmlns:xlink="http://www.w3.org/1999/xlink" viewBox="0 0 707.13 228.22"><defs><style>.cls-1{fill:url(#linear-gradient);}.cls-2{fill:url(#linear-gradient-2);}.cls-3{fill:url(#linear-gradient-3);}.cls-4{fill:url(#linear-gradient-4);}.cls-5{font-size:89.51px;font-family:Montserrat-Light, Montserrat;font-weight:300;}.cls-6{letter-spacing:0em;}.cls-7{letter-spacing:-0.03em;}</style><linearGradient id="linear-gradient" x1="34.67" y1="34.68" x2="194.41" y2="194.42" gradientUnits="userSpaceOnUse"><stop offset="0" stop-color="#07f"/><stop offset="1" stop-color="#00ffa4"/></linearGradient><linearGradient id="linear-gradient-2" x1="15.4" y1="53.95" x2="175.14" y2="213.7" gradientTransform="translate(176.05 21.2) rotate(80.76)" xlink:href="#linear-gradient"/><linearGradient id="linear-gradient-3" x1="34.67" y1="34.68" x2="194.42" y2="194.42" gradientTransform="translate(198.82 -23.24) rotate(76.66)" xlink:href="#linear-gradient"/><linearGradient id="linear-gradient-4" x1="53.95" y1="15.41" x2="213.69" y2="175.15" gradientTransform="translate(125.4 -74.52) rotate(45)" xlink:href="#linear-gradient"/></defs><g id="Camada_2" data-name="Camada 2"><g id="Layer_1" data-name="Layer 1"><path class="cls-1" d="M196.5,35.18A114.1,114.1,0,1,0,193,196.51,114.09,114.09,0,0,0,196.5,35.18ZM184.72,155.54c-9.13,16.05-.54,26.94,3.82,33l0,0-.34-.33.27.4,0,0c-6.15-4.39-16.54-12.64-33.36-3.69h0a81.84,81.84,0,1,1,29.63-29.44Z"/><circle class="cls-2" cx="75.56" cy="114.11" r="14.02" transform="matrix(0.16, -0.99, 0.99, 0.16, -49.21, 170.35)"/><circle class="cls-3" cx="114.1" cy="114.11" r="14.02" transform="translate(-23.25 198.81) rotate(-76.66)"/><circle class="cls-4" cx="152.65" cy="114.11" r="14.02" transform="translate(-35.98 141.36) rotate(-45)"/><text class="cls-5" transform="translate(261.94 145.92)"><tspan class="cls-6">R</tspan><tspan x="64" y="0">aise </tspan><tspan class="cls-7" x="258.78" y="0">T</tspan><tspan x="306.58" y="0">alk</tspan></text></g></g></svg>