<svg xmlns="http://www.w3.org/2000/svg" xmlns:xlink="http://www.w3.org/1999/xlink" viewBox="0 0 122.37 122.38"><defs><style>.cls-1{fill:url(#linear-gradient);}.cls-2{fill:url(#linear-gradient-2);}.cls-3{fill:url(#linear-gradient-3);}.cls-4{fill:url(#linear-gradient-4);}</style><linearGradient id="linear-gradient" x1="18.59" y1="18.6" x2="104.25" y2="104.26" gradientUnits="userSpaceOnUse"><stop offset="0" stop-color="#07f"/><stop offset="1" stop-color="#00ffa4"/></linearGradient><linearGradient id="linear-gradient-2" x1="8.26" y1="28.93" x2="93.92" y2="114.59" gradientTransform="translate(94.4 11.37) rotate(80.76)" xlink:href="#linear-gradient"/><linearGradient id="linear-gradient-3" x1="18.59" y1="18.6" x2="104.25" y2="104.26" gradientTransform="translate(106.61 -12.46) rotate(76.66)" xlink:href="#linear-gradient"/><linearGradient id="linear-gradient-4" x1="28.93" y1="8.26" x2="114.59" y2="93.92" gradientTransform="translate(67.24 -39.96) rotate(45)" xlink:href="#linear-gradient"/></defs><g id="Camada_2" data-name="Camada 2"><g id="Layer_1" data-name="Layer 1"><path class="cls-1" d="M105.37,18.87a61.18,61.18,0,1,0-1.86,86.51A61.18,61.18,0,0,0,105.37,18.87ZM99.06,83.41c-4.9,8.6-.3,14.44,2,17.72l0,0-.18-.18.14.22v0c-3.29-2.35-8.87-6.78-17.89-2h0a43.86,43.86,0,1,1,15.9-15.78Z"/><circle class="cls-2" cx="40.52" cy="61.19" r="7.52" transform="translate(-26.39 91.35) rotate(-80.76)"/><circle class="cls-3" cx="61.19" cy="61.19" r="7.52" transform="translate(-12.47 106.61) rotate(-76.66)"/><circle class="cls-4" cx="81.86" cy="61.19" r="7.52" transform="translate(-19.29 75.8) rotate(-45)"/></g></g></svg>